<svg xmlns="http://www.w3.org/2000/svg" width="80" height="40" viewBox="0 0 80 40">
  <g fill="none" fill-rule="evenodd">
    <rect width="80" height="40"/>
    <path fill="#FF002E" fill-rule="nonzero" d="M52.6862915,8 C54.9694595,8 57.1631807,8.86755084 58.8267322,10.4200991 L59.0502525,10.636039 L64.7071068,16.2928932 C64.8187872,16.4045737 64.9020226,16.5407011 64.9506732,16.6898035 L64.9805807,16.8038839 L65.819,21 L67,21 C67.5128358,21 67.9355072,21.3860402 67.9932723,21.8833789 L68,22 L68,25 C68,25.2210137 67.9268355,25.434484 67.7939194,25.6080295 L67.7071068,25.7071068 L65.7071068,27.7071068 C65.5508265,27.8633871 65.3481451,27.9625983 65.131444,27.9913276 L65,28 L57.8997409,28.0011864 C57.4360122,30.2828356 55.4185387,32 53,32 C50.5814613,32 48.5639878,30.2828356 48.1002591,28.0011864 L29.8997409,28.0011864 C29.4360122,30.2828356 27.4185387,32 25,32 C22.5814613,32 20.5639878,30.2828356 20.1002591,28.0011864 L15,28 C14.7789863,28 14.565516,27.9268355 14.3919705,27.7939194 L14.2928932,27.7071068 L12.2928932,25.7071068 C12.1366129,25.5508265 12.0374017,25.3481451 12.0086724,25.131444 L12,25 L12,23 C12,22.8835662 12.0203316,22.7683316 12.0597872,22.6594118 L12.1055728,22.5527864 L13,20.762 L13,19 C13,18.5443959 13.3068403,18.151693 13.7377393,18.0349434 L13.8479428,18.0116283 L26.445,16.073 L29.8,11.6 C31.4389862,9.41468501 33.9778834,8.09645709 36.6971532,8.00508535 L37,8 L52.6862915,8 Z M25,24 C23.3431458,24 22,25.3431458 22,27 C22,28.6568542 23.3431458,30 25,30 C26.6568542,30 28,28.6568542 28,27 C28,25.3431458 26.6568542,24 25,24 Z M53,24 C51.3431458,24 50,25.3431458 50,27 C50,28.6568542 51.3431458,30 53,30 C54.6568542,30 56,28.6568542 56,27 C56,25.3431458 54.6568542,24 53,24 Z M52.6862915,10 L37,10 C34.8885031,10 32.8950971,10.9527135 31.5691229,12.58347 L31.4,12.8 L27.8,17.6 C27.6692537,17.7743284 27.4859381,17.9001997 27.2788977,17.9603246 L27.1520572,17.9883717 L15,19.858 L15,21 C15,21.1164338 14.9796684,21.2316684 14.9402128,21.3405882 L14.8944272,21.4472136 L14,23.235 L14,24.585 L15.415,26 L20.1000563,25.999812 C20.5633992,23.7176654 22.5811085,22 25,22 C27.4188915,22 29.4366008,23.7176654 29.8999437,25.999812 L48.1000563,25.999812 C48.5633992,23.7176654 50.5811085,22 53,22 C55.4188915,22 57.4366008,23.7176654 57.8999437,25.999812 L64.584,26 L66,24.584 L66,23 L65,23 C64.5630424,23 64.1817668,22.7172804 64.0492482,22.3101248 L64.0194193,22.1961161 L63.078,17.493 L57.636039,12.0502525 C56.3962151,10.8104287 54.7391942,10.0837197 52.9949395,10.0068009 L52.6862915,10 Z"/>
  </g>
</svg>
