<svg xmlns="http://www.w3.org/2000/svg" width="80" height="40" viewBox="0 0 80 40">
  <g fill="none" fill-rule="evenodd">
    <rect width="80" height="40"/>
    <path fill="#FF002E" fill-rule="nonzero" d="M34,8 C34.7865887,8 35.2509345,8.8571835 34.8614991,9.50847393 L34.8,9.6 L30,16 L58,16 L58,14 C58,13.3876977 58.5415763,12.9288299 59.1314823,13.008512 L59.2425356,13.0298575 L69.7276069,15.6511253 C71.0050426,15.9704842 71.9177776,17.0822437 71.9947311,18.3830544 L72,18.5615528 L72,21 L73,21 C73.5128358,21 73.9355072,21.3860402 73.9932723,21.8833789 L74,22 L74,25 C74,25.2210137 73.9268355,25.434484 73.7939194,25.6080295 L73.7071068,25.7071068 L71.7071068,27.7071068 C71.5508265,27.8633871 71.3481451,27.9625983 71.131444,27.9913276 L71,28 L63.8997409,28.0011864 C63.4360122,30.2828356 61.4185387,32 59,32 C56.5793447,32 54.5604569,30.2798287 54.0990452,27.9951948 L54,28 L26,28 L25.9009548,27.9951948 C25.4395431,30.2798287 23.4206553,32 21,32 C18.5814613,32 16.5639878,30.2828356 16.1002591,28.0011864 L9,28 C8.77898626,28 8.56551597,27.9268355 8.39197049,27.7939194 L8.29289322,27.7071068 L6.29289322,25.7071068 C6.1366129,25.5508265 6.03740171,25.3481451 6.00867243,25.131444 L6,25 L6,23 C6,22.8835662 6.02033161,22.7683316 6.05978724,22.6594118 L6.10557281,22.5527864 L7,20.762 L7,19 C7,18.5373514 7.31614413,18.1406686 7.75553307,18.0302779 L7.86783628,18.0087721 L22.531,16.053 L28.1715729,10.4142136 C29.6437586,8.94202786 31.6154934,8.08424253 33.6883611,8.00588698 L34,8 Z M21,24 C19.3431458,24 18,25.3431458 18,27 C18,28.6568542 19.3431458,30 21,30 C22.6568542,30 24,28.6568542 24,27 C24,25.3431458 22.6568542,24 21,24 Z M59,24 C57.3431458,24 56,25.3431458 56,27 C56,28.6568542 57.3431458,30 59,30 C60.6568542,30 62,28.6568542 62,27 C62,25.3431458 60.6568542,24 59,24 Z M31.657,10.457 L31.4792847,10.5315493 C30.8674235,10.8016014 30.2984141,11.1701801 29.7966433,11.627184 L29.5857864,11.8284271 L23.7071068,17.7071068 C23.5829,17.8313136 23.4287518,17.9200548 23.2606277,17.9654408 L23.1321637,17.9912279 L9,19.875 L9,21 C9,21.1164338 8.97966839,21.2316684 8.94021276,21.3405882 L8.89442719,21.4472136 L8,23.235 L8,24.585 L9.415,26 L16.1000563,25.999812 C16.5633992,23.7176654 18.5811085,22 21,22 C23.4206553,22 25.4395431,23.7201713 25.9009548,26.0048052 L26,26 L54,26 L54.0990452,26.0048052 C54.5604569,23.7201713 56.5793447,22 59,22 C61.4188915,22 63.4366008,23.7176654 63.8999437,25.999812 L70.584,26 L72,24.584 L72,23 L71,23 C70.4871642,23 70.0644928,22.6139598 70.0067277,22.1166211 L70,22 L70,18.5615528 C70,18.1409241 69.7375835,17.7697748 69.3509554,17.6251147 L69.2425356,17.5914103 L60,15.281 L60,17 C60,17.5128358 59.6139598,17.9355072 59.1166211,17.9932723 L59,18 L28,18 C27.2134113,18 26.7490655,17.1428165 27.1385009,16.4915261 L27.2,16.4 L31.657,10.457 Z"/>
  </g>
</svg>
