<svg xmlns="http://www.w3.org/2000/svg" width="80" height="40" viewBox="0 0 80 40">
  <g fill="none" fill-rule="evenodd">
    <rect width="80" height="40"/>
    <path fill="#FF002E" fill-rule="nonzero" d="M48.6862915,8 C50.9694595,8 53.1631807,8.86755084 54.8267322,10.4200991 L55.0502525,10.636039 L60.7071068,16.2928932 C60.8187872,16.4045737 60.9020226,16.5407011 60.9506732,16.6898035 L60.9805807,16.8038839 L61.819,21 L63,21 C63.5128358,21 63.9355072,21.3860402 63.9932723,21.8833789 L64,22 L64,25 C64,25.2210137 63.9268355,25.434484 63.7939194,25.6080295 L63.7071068,25.7071068 L61.7071068,27.7071068 C61.5508265,27.8633871 61.3481451,27.9625983 61.131444,27.9913276 L61,28 L55.8997409,28.0011864 C55.4360122,30.2828356 53.4185387,32 51,32 C48.5814613,32 46.5639878,30.2828356 46.1002591,28.0011864 L31.8997409,28.0011864 C31.4360122,30.2828356 29.4185387,32 27,32 C24.5814613,32 22.5639878,30.2828356 22.1002591,28.0011864 L19,28 C18.7789863,28 18.565516,27.9268355 18.3919705,27.7939194 L18.2928932,27.7071068 L16.2928932,25.7071068 C16.1366129,25.5508265 16.0374017,25.3481451 16.0086724,25.131444 L16,25 L16,23 C16,22.8835662 16.0203316,22.7683316 16.0597872,22.6594118 L16.1055728,22.5527864 L17,20.762 L17,19 C17,18.5569877 17.2904201,18.172085 17.7050723,18.0444203 L17.8211146,18.0161301 L28.435,16.086 L31.8,11.6 C33.4389862,9.41468501 35.9778834,8.09645709 38.6971532,8.00508535 L39,8 L48.6862915,8 Z M27,24 C25.3431458,24 24,25.3431458 24,27 C24,28.6568542 25.3431458,30 27,30 C28.6568542,30 30,28.6568542 30,27 C30,25.3431458 28.6568542,24 27,24 Z M51,24 C49.3431458,24 48,25.3431458 48,27 C48,28.6568542 49.3431458,30 51,30 C52.6568542,30 54,28.6568542 54,27 C54,25.3431458 52.6568542,24 51,24 Z M48.6862915,10 L39,10 C36.8885031,10 34.8950971,10.9527135 33.5691229,12.58347 L33.4,12.8 L29.8,17.6 C29.6739559,17.7680588 29.4988932,17.89128 29.300509,17.953782 L29.1788854,17.9838699 L19,19.834 L19,21 C19,21.1164338 18.9796684,21.2316684 18.9402128,21.3405882 L18.8944272,21.4472136 L18,23.235 L18,24.585 L19.415,26 L22.1000563,25.999812 C22.5633992,23.7176654 24.5811085,22 27,22 C29.4188915,22 31.4366008,23.7176654 31.8999437,25.999812 L46.1000563,25.999812 C46.5633992,23.7176654 48.5811085,22 51,22 C53.4188915,22 55.4366008,23.7176654 55.8999437,25.999812 L60.584,26 L62,24.584 L62,23 L61,23 C60.5630424,23 60.1817668,22.7172804 60.0492482,22.3101248 L60.0194193,22.1961161 L59.078,17.493 L53.636039,12.0502525 C52.3962151,10.8104287 50.7391942,10.0837197 48.9949395,10.0068009 L48.6862915,10 Z"/>
  </g>
</svg>
