<svg xmlns="http://www.w3.org/2000/svg" width="80" height="40" viewBox="0 0 80 40">
  <g fill="none" fill-rule="evenodd">
    <rect width="80" height="40"/>
    <path fill="#FF002E" fill-rule="nonzero" d="M46,8 C47.4909556,8 48.8994798,8.66502641 49.8465013,9.80554361 L50,10 L54.8,16.4 C54.8671947,16.4895929 54.9187015,16.5896189 54.9526096,16.695804 L54.9805807,16.8038839 L55.819,21 L57,21 C57.5128358,21 57.9355072,21.3860402 57.9932723,21.8833789 L58,22 L58,23 L62,23 C62.5128358,23 62.9355072,22.6139598 62.9932723,22.1166211 L63,22 L63,20 L62.5,20 C60.0857267,20 58.1155109,18.0987635 58.004898,15.7118357 L58,15.5 L58,14 C58,12.4023191 59.24892,11.0963391 60.8237272,11.0050927 L61,11 L61,10 C61,9.44771525 61.4477153,9 62,9 C62.5522847,9 63,9.44771525 63,10 L63,11 L65,11 L65,10 C65,9.44771525 65.4477153,9 66,9 C66.5522847,9 67,9.44771525 67,10 L67,11 C68.5976809,11 69.9036609,12.24892 69.9949073,13.8237272 L70,14 L70,15.5 C70,17.9142733 68.0987635,19.8844891 65.7118357,19.995102 L65.5,20 L65,20 L65,22 C65,23.5976809 63.75108,24.9036609 62.1762728,24.9949073 L62,25 L58,25 C58,25.2210137 57.9268355,25.434484 57.7939194,25.6080295 L57.7071068,25.7071068 L55.7071068,27.7071068 C55.5508265,27.8633871 55.3481451,27.9625983 55.131444,27.9913276 L55,28 L51.8997409,28.0011864 C51.4360122,30.2828356 49.4185387,32 47,32 C44.5814613,32 42.5639878,30.2828356 42.1002591,28.0011864 L24.8997409,28.0011864 C24.4360122,30.2828356 22.4185387,32 20,32 C17.5814613,32 15.5639878,30.2828356 15.1002591,28.0011864 L13,28 C12.7789863,28 12.565516,27.9268355 12.3919705,27.7939194 L12.2928932,27.7071068 L10.2928932,25.7071068 C10.1366129,25.5508265 10.0374017,25.3481451 10.0086724,25.131444 L10,25 L10,20.5615528 C10,19.2448022 10.8571943,18.0896779 12.1005021,17.6995292 L12.2723931,17.6511253 L18.414,16.115 L21.8,11.6 C23.4389862,9.41468501 25.9778834,8.09645709 28.6971532,8.00508535 L29,8 L46,8 Z M20,24 C18.3431458,24 17,25.3431458 17,27 C17,28.6568542 18.3431458,30 20,30 C21.6568542,30 23,28.6568542 23,27 C23,25.3431458 21.6568542,24 20,24 Z M47,24 C45.3431458,24 44,25.3431458 44,27 C44,28.6568542 45.3431458,30 47,30 C48.6568542,30 50,28.6568542 50,27 C50,25.3431458 48.6568542,24 47,24 Z M46,10 L29,10 C26.8885031,10 24.8950971,10.9527135 23.5691229,12.58347 L23.4,12.8 L19.8,17.6 C19.689758,17.7469893 19.5417266,17.8600368 19.3728432,17.9278963 L19.2425356,17.9701425 L12.7574644,19.5914103 C12.3493946,19.6934278 12.0529723,20.0380261 12.0064024,20.4481957 L12,20.5615528 L12,24.585 L13.415,26 L15.1000563,25.999812 C15.5633992,23.7176654 17.5811085,22 20,22 C22.4188915,22 24.4366008,23.7176654 24.8999437,25.999812 L42.1000563,25.999812 C42.5633992,23.7176654 44.5811085,22 47,22 C49.4188915,22 51.4366008,23.7176654 51.8999437,25.999812 L54.584,26 L56,24.584 L56,23 L55,23 C54.5630424,23 54.1817668,22.7172804 54.0492482,22.3101248 L54.0194193,22.1961161 L53.063,17.418 L48.4,11.2 C47.8739057,10.4985409 47.0696495,10.0650977 46.201403,10.0067561 L46,10 Z M67,13 L61,13 C60.4871642,13 60.0644928,13.3860402 60.0067277,13.8833789 L60,14 L60,15.5 C60,16.8254834 61.0315359,17.9100387 62.3356243,17.9946823 L62.5,18 L65.5,18 C66.8254834,18 67.9100387,16.9684641 67.9946823,15.6643757 L68,15.5 L68,14 C68,13.4871642 67.6139598,13.0644928 67.1166211,13.0067277 L67,13 Z"/>
  </g>
</svg>
