<svg xmlns="http://www.w3.org/2000/svg" width="80" height="40" viewBox="0 0 80 40">
  <g fill="none" fill-rule="evenodd">
    <rect width="80" height="40"/>
    <path fill="#FF002E" fill-rule="nonzero" d="M60.1715729,4 C60.9009182,4 61.6028808,4.26558704 62.148162,4.74320383 L62.2928932,4.87867966 L67.1213203,9.70710678 C67.6370454,10.2228318 67.9456095,10.9069927 67.9934554,11.6302908 L68,11.8284271 L68,13 L69,13 C69.5128358,13 69.9355072,13.3860402 69.9932723,13.8833789 L70,14 L70,22 C70,22.5128358 69.6139598,22.9355072 69.1166211,22.9932723 L69,23 L68,23 L68,26 C68,26.5128358 67.6139598,26.9355072 67.1166211,26.9932723 L67,27 L60.9169061,27.0008069 C60.4404956,29.8381232 57.9727145,32 55,32 C52.0272855,32 49.5595044,29.8381232 49.0830939,27.0008069 L30.9169061,27.0008069 C30.4404956,29.8381232 27.9727145,32 25,32 C22.0272855,32 19.5595044,29.8381232 19.0830939,27.0008069 L13,27 C12.7789863,27 12.565516,26.9268355 12.3919705,26.7939194 L12.2928932,26.7071068 L10.2928932,24.7071068 C10.1366129,24.5508265 10.0374017,24.3481451 10.0086724,24.131444 L10,24 L10,19 C10,18.8835662 10.0203316,18.7683316 10.0597872,18.6594118 L10.1055728,18.5527864 L11,16.762 L11,15 C11,14.5443959 11.3068403,14.151693 11.7377393,14.0349434 L11.8479428,14.0116283 L24.523,12.061 L31.7071068,4.87867966 C32.2228318,4.36295462 32.9069927,4.05439049 33.6302908,4.00654456 L33.8284271,4 L60.1715729,4 Z M25,22 C22.790861,22 21,23.790861 21,26 C21,28.209139 22.790861,30 25,30 C27.209139,30 29,28.209139 29,26 C29,23.790861 27.209139,22 25,22 Z M55,22 C52.790861,22 51,23.790861 51,26 C51,28.209139 52.790861,30 55,30 C57.209139,30 59,28.209139 59,26 C59,23.790861 57.209139,22 55,22 Z M60.1715729,6 L33.8284271,6 C33.6074134,6 33.3939431,6.07316447 33.2203976,6.20608063 L33.1213203,6.29289322 L25.7071068,13.7071068 C25.5867893,13.8274243 25.4382889,13.9145447 25.2760687,13.9611391 L25.1520572,13.9883717 L13,15.858 L13,17 C13,17.1164338 12.9796684,17.2316684 12.9402128,17.3405882 L12.8944272,17.4472136 L12,19.235 L12,23.585 L13.415,25 L19.0829263,25.0001915 C19.5589255,22.1623839 22.0269368,20 25,20 C27.9730632,20 30.4410745,22.1623839 30.9170737,25.0001915 L49.0829263,25.0001915 C49.5589255,22.1623839 52.0269368,20 55,20 C57.9730632,20 60.4410745,22.1623839 60.9170737,25.0001915 L66,25 L66,22 C66,21.4871642 66.3860402,21.0644928 66.8833789,21.0067277 L67,21 L68,21 L68,15 L67,15 C66.4871642,15 66.0644928,14.6139598 66.0067277,14.1166211 L66,14 L66,11.8284271 C66,11.6074134 65.9268355,11.3939431 65.7939194,11.2203976 L65.7071068,11.1213203 L60.8786797,6.29289322 C60.7223993,6.1366129 60.519718,6.03740171 60.3030169,6.00867243 L60.1715729,6 Z"/>
  </g>
</svg>
