<svg xmlns="http://www.w3.org/2000/svg" width="80" height="40" viewBox="0 0 80 40">
  <g fill="none" fill-rule="evenodd">
    <rect width="80" height="40"/>
    <path fill="#FF002E" fill-rule="nonzero" d="M60.2918682,6 C62.260668,6 64.0384639,7.15425815 64.8454862,8.93484479 L64.9342516,9.14304662 L67.7854301,16.2709928 C67.8988255,16.5544814 67.968113,16.853197 67.9912922,17.1567528 L68,17.3851648 L68,21 L69,21 C69.5128358,21 69.9355072,21.3860402 69.9932723,21.8833789 L70,22 L70,25 C70,25.2210137 69.9268355,25.434484 69.7939194,25.6080295 L69.7071068,25.7071068 L67.7071068,27.7071068 C67.5508265,27.8633871 67.3481451,27.9625983 67.131444,27.9913276 L67,28 L59.8997409,28.0011864 C59.4360122,30.2828356 57.4185387,32 55,32 C52.5814613,32 50.5639878,30.2828356 50.1002591,28.0011864 L27.8997409,28.0011864 C27.4360122,30.2828356 25.4185387,32 23,32 C20.5814613,32 18.5639878,30.2828356 18.1002591,28.0011864 L13,28 C12.7789863,28 12.565516,27.9268355 12.3919705,27.7939194 L12.2928932,27.7071068 L10.2928932,25.7071068 C10.1366129,25.5508265 10.0374017,25.3481451 10.0086724,25.131444 L10,25 L10,23 C10,22.8835662 10.0203316,22.7683316 10.0597872,22.6594118 L10.1055728,22.5527864 L11,20.762 L11,19 C11,18.6009047 11.2366302,18.2442356 11.5948993,18.0856865 L11.7059142,18.044221 L24.467,14.117 L29.9497475,8.63603897 C31.5641911,7.02159536 33.7288373,6.08385132 36.0029632,6.00536024 L36.3137085,6 L60.2918682,6 Z M23,24 C21.3431458,24 20,25.3431458 20,27 C20,28.6568542 21.3431458,30 23,30 C24.6568542,30 26,28.6568542 26,27 C26,25.3431458 24.6568542,24 23,24 Z M55,24 C53.3431458,24 52,25.3431458 52,27 C52,28.6568542 53.3431458,30 55,30 C56.6568542,30 58,28.6568542 58,27 C58,25.3431458 56.6568542,24 55,24 Z M60.2918682,8 L36.3137085,8 C34.5603328,8 32.8747812,8.6578299 31.5870171,9.83681436 L31.363961,10.0502525 L25.7071068,15.7071068 C25.6206067,15.7936069 25.5192225,15.8632534 25.4081691,15.9129066 L25.2940858,15.955779 L13,19.738 L13,21 C13,21.1164338 12.9796684,21.2316684 12.9402128,21.3405882 L12.8944272,21.4472136 L12,23.235 L12,24.585 L13.415,26 L18.1000563,25.999812 C18.5633992,23.7176654 20.5811085,22 23,22 C25.4188915,22 27.4366008,23.7176654 27.8999437,25.999812 L50.1000563,25.999812 C50.5633992,23.7176654 52.5811085,22 55,22 C57.4188915,22 59.4366008,23.7176654 59.8999437,25.999812 L66.584,26 L68,24.584 L68,23 L67,23 C66.4871642,23 66.0644928,22.6139598 66.0067277,22.1166211 L66,22 L66,17.3851648 C66,17.3003519 65.989211,17.2160582 65.9680189,17.1342875 L65.9284767,17.0137741 L63.0772982,9.88582797 C62.6456866,8.80679889 61.6329067,8.0797023 60.4844564,8.00615482 L60.2918682,8 Z"/>
  </g>
</svg>
