<svg xmlns="http://www.w3.org/2000/svg" width="80" height="40" viewBox="0 0 80 40">
  <g fill="none" fill-rule="evenodd">
    <rect width="80" height="40"/>
    <path fill="#FF002E" fill-rule="nonzero" d="M62.527864,8 C65.5499692,8 68.3208012,9.65410071 69.7594028,12.2942339 L69.8944272,12.5527864 L71.6832816,16.1304952 C71.8568509,16.4776338 71.9610814,16.8544757 71.9910035,17.2399697 L72,17.472136 L72,21 L73,21 C73.5128358,21 73.9355072,21.3860402 73.9932723,21.8833789 L74,22 L74,25 C74,25.2210137 73.9268355,25.434484 73.7939194,25.6080295 L73.7071068,25.7071068 L71.7071068,27.7071068 C71.5508265,27.8633871 71.3481451,27.9625983 71.131444,27.9913276 L71,28 L63.8997409,28.0011864 C63.4360122,30.2828356 61.4185387,32 59,32 C56.5793447,32 54.5604569,30.2798287 54.0990452,27.9951948 L54,28 L26,28 L25.9009548,27.9951948 C25.4395431,30.2798287 23.4206553,32 21,32 C18.5814613,32 16.5639878,30.2828356 16.1002591,28.0011864 L9,28 C8.77898626,28 8.56551597,27.9268355 8.39197049,27.7939194 L8.29289322,27.7071068 L6.29289322,25.7071068 C6.1366129,25.5508265 6.03740171,25.3481451 6.00867243,25.131444 L6,25 L6,23 C6,22.8835662 6.02033161,22.7683316 6.05978724,22.6594118 L6.10557281,22.5527864 L7,20.762 L7,19 C7,18.5373514 7.31614413,18.1406686 7.75553307,18.0302779 L7.86783628,18.0087721 L22.531,16.053 L27.9497475,10.636039 C29.5641911,9.02159536 31.7288373,8.08385132 34.0029632,8.00536024 L34.3137085,8 L62.527864,8 Z M21,24 C19.3431458,24 18,25.3431458 18,27 C18,28.6568542 19.3431458,30 21,30 C22.6568542,30 24,28.6568542 24,27 C24,25.3431458 22.6568542,24 21,24 Z M59,24 C57.3431458,24 56,25.3431458 56,27 C56,28.6568542 57.3431458,30 59,30 C60.6568542,30 62,28.6568542 62,27 C62,25.3431458 60.6568542,24 59,24 Z M62.527864,10 L34.3137085,10 C32.5603328,10 30.8747812,10.6578299 29.5870171,11.8368144 L29.363961,12.0502525 L23.7071068,17.7071068 C23.5829,17.8313136 23.4287518,17.9200548 23.2606277,17.9654408 L23.1321637,17.9912279 L9,19.875 L9,21 C9,21.1164338 8.97966839,21.2316684 8.94021276,21.3405882 L8.89442719,21.4472136 L8,23.235 L8,24.585 L9.415,26 L16.1000563,25.999812 C16.5633992,23.7176654 18.5811085,22 21,22 C23.4206553,22 25.4395431,23.7201713 25.9009548,26.0048052 L26,26 L54,26 L54.0990452,26.0048052 C54.5604569,23.7201713 56.5793447,22 59,22 C61.4188915,22 63.4366008,23.7176654 63.8999437,25.999812 L70.584,26 L72,24.584 L72,23 L71,23 C70.4871642,23 70.0644928,22.6139598 70.0067277,22.1166211 L70,22 L70,17.472136 C70,17.3557021 69.9796684,17.2404676 69.9402128,17.1315478 L69.8944272,17.0249224 L68.1055728,13.4472136 C67.0869591,11.4099862 65.0427427,10.0963163 62.7801239,10.0050813 L62.527864,10 Z"/>
  </g>
</svg>
