<svg xmlns="http://www.w3.org/2000/svg" width="40" height="31" viewBox="0 0 40 31">
  <g fill="none" fill-rule="evenodd">
    <rect width="40" height="31"/>
    <path fill="#121317" d="M29,2 C30.5976809,2 31.9036609,2.97138219 31.9949073,4.19623228 L32,4.33333333 L32,8.22222222 L35,8.22222222 C36.5976809,8.22222222 37.9036609,9.19360442 37.9949073,10.4184545 L38,10.5555556 L38,27.6666667 C38,28.9093074 36.75108,29.9250696 35.1762728,29.996039 L35,30 L7,30 C4.3112453,30 2.11818189,28.349317 2.00461951,26.279803 L2,26.1111111 L2,5.88888889 C2,3.79763523 4.12230671,2.09191924 6.78311038,2.00359296 L7,2 L29,2 Z M3.99980567,9.00017128 L3.99980567,26.1111111 C3.99980567,27.3537518 5.24891996,28.369514 6.82372721,28.4404835 L7,28.4444444 L35,28.4444444 C35.5128358,28.4444444 35.9355072,28.144191 35.9932723,27.757372 L36,27.6666667 L36,23 L28,23 C26.4023191,23 25.0963391,22.0286178 25.0050927,20.8037677 L25,20.6666667 L25,17.5555556 C25,16.3129149 26.24892,15.2971526 27.8237272,15.2261832 L28,15.2222222 L36,15.2222222 L36,10.5555556 C36,10.1566832 35.6139598,9.82793888 35.1166211,9.78301046 L35,9.77777778 L7,9.77777778 C5.87430683,9.77777778 4.83549949,9.48844251 3.99980567,9.00017128 Z M36,16.7777778 L28,16.7777778 C27.5266131,16.7777778 27.1300527,17.0336151 27.0264107,17.3772182 L27.0067277,17.4648502 L27,17.5555556 L27,20.6666667 C27,21.065539 27.3860402,21.3942833 27.8833789,21.4392118 L28,21.4444444 L36,21.4444444 L36,16.7777778 Z M30,18.3333333 C30.5522847,18.3333333 31,18.6815563 31,19.1111111 C31,19.5406659 30.5522847,19.8888889 30,19.8888889 C29.4477153,19.8888889 29,19.5406659 29,19.1111111 C29,18.6815563 29.4477153,18.3333333 30,18.3333333 Z M29,3.55555556 L7,3.55555556 C5.34314575,3.55555556 4,4.60022447 4,5.88888889 C4,7.13152958 5.24891996,8.1472918 6.82372721,8.21826124 L7,8.22222222 L30,8.22222222 L30,4.33333333 C30,3.93446101 29.6139598,3.60571665 29.1166211,3.56078824 L29,3.55555556 Z"/>
  </g>
</svg>
