<svg xmlns="http://www.w3.org/2000/svg" width="40" height="40" viewBox="0 0 40 40">
  <g fill="none" fill-rule="evenodd">
    <rect width="40" height="40"/>
    <path fill="#121317" d="M20.7071068,2.29289322 C21.0675907,2.65337718 21.0953203,3.22060824 20.7902954,3.61289944 L20.7071068,3.70710678 L18.414,6 L20,6 C28.836556,6 36,13.163444 36,22 C36,30.836556 28.836556,38 20,38 C11.163444,38 4,30.836556 4,22 C4,21.4477153 4.44771525,21 5,21 C5.55228475,21 6,21.4477153 6,22 C6,29.7319865 12.2680135,36 20,36 C27.7319865,36 34,29.7319865 34,22 C34,14.3724998 27.9002476,8.16967311 20.312645,8.00342205 L20,8 L18.414,8 L20.7071068,10.2928932 C21.0675907,10.6533772 21.0953203,11.2206082 20.7902954,11.6128994 L20.7071068,11.7071068 C20.3466228,12.0675907 19.7793918,12.0953203 19.3871006,11.7902954 L19.2928932,11.7071068 L15.2928932,7.70710678 C15.2574992,7.67171273 15.225313,7.63432558 15.1963346,7.59530661 L15.1246712,7.4840621 L15.1246712,7.4840621 L15.0712255,7.37133602 L15.0712255,7.37133602 L15.0358451,7.26599297 L15.0358451,7.26599297 L15.0149219,7.17265979 L15.0149219,7.17265979 L15.0039775,7.08980185 L15.0039775,7.08980185 L15,7 L15.0027879,6.92476146 L15.0027879,6.92476146 L15.0202401,6.79927424 L15.0202401,6.79927424 L15.0497381,6.68785748 L15.0497381,6.68785748 L15.0936734,6.57677845 L15.0936734,6.57677845 L15.1459955,6.47929125 L15.1459955,6.47929125 L15.2097046,6.38710056 L15.2097046,6.38710056 L15.2928932,6.29289322 L15.2928932,6.29289322 L19.2928932,2.29289322 C19.6834175,1.90236893 20.3165825,1.90236893 20.7071068,2.29289322 Z M16,16 C16.5128358,16 16.9355072,16.3860402 16.9932723,16.8833789 L17,17 L17,27 C17,27.5522847 16.5522847,28 16,28 C15.4871642,28 15.0644928,27.6139598 15.0067277,27.1166211 L15,27 L15,18 L13,18 C12.4871642,18 12.0644928,17.6139598 12.0067277,17.1166211 L12,17 C12,16.4871642 12.3860402,16.0644928 12.8833789,16.0067277 L13,16 L16,16 Z M25.9941318,16.8860484 L26,17 L26,23 L27,23 C27.5128358,23 27.9355072,23.3860402 27.9932723,23.8833789 L28,24 C28,24.5128358 27.6139598,24.9355072 27.1166211,24.9932723 L27,25 L26,25 L26,27 C26,27.5128358 25.6139598,27.9355072 25.1166211,27.9932723 L25,28 C24.4871642,28 24.0644928,27.6139598 24.0067277,27.1166211 L24,27 L24,25 L20,25 C19.2253595,25 18.7593343,24.1661046 19.1250981,23.5149391 L19.1862665,23.4187618 L24.1862665,16.4187618 C24.7290996,15.6587955 25.9012299,15.9970653 25.9941318,16.8860484 Z M24,20.119 L21.942,23 L24,23 L24,20.119 Z"/>
  </g>
</svg>
