<svg xmlns="http://www.w3.org/2000/svg" width="40" height="40" viewBox="0 0 40 40">
  <g fill="none" fill-rule="evenodd">
    <rect width="40" height="40"/>
    <path fill="#121317" d="M20.6128994,4.20970461 L20.7071068,4.29289322 L37.7071068,21.2928932 C38.0976311,21.6834175 38.0976311,22.3165825 37.7071068,22.7071068 C37.3466228,23.0675907 36.7793918,23.0953203 36.3871006,22.7902954 L36.2928932,22.7071068 L32.999,19.414 L33,33 C33,34.5976809 31.75108,35.9036609 30.1762728,35.9949073 L30,36 L10,36 C8.40231912,36 7.09633912,34.75108 7.00509269,33.1762728 L7,33 L6.999,19.415 L3.70710678,22.7071068 C3.34662282,23.0675907 2.77939176,23.0953203 2.38710056,22.7902954 L2.29289322,22.7071068 C1.93240926,22.3466228 1.90467972,21.7793918 2.20970461,21.3871006 L2.29289322,21.2928932 L19.2928932,4.29289322 C19.6533772,3.93240926 20.2206082,3.90467972 20.6128994,4.20970461 Z M20,6.415 L8.999,17.415 L9,33 C9,33.5128358 9.38604019,33.9355072 9.88337887,33.9932723 L10,34 L16,34 L16,27 C16,25.4023191 17.24892,24.0963391 18.8237272,24.0050927 L19,24 L21,24 C22.5976809,24 23.9036609,25.24892 23.9949073,26.8237272 L24,27 L24,34 L30,34 C30.5128358,34 30.9355072,33.6139598 30.9932723,33.1166211 L31,33 L30.999,17.414 L20,6.415 Z M21,26 L19,26 C18.4871642,26 18.0644928,26.3860402 18.0067277,26.8833789 L18,27 L18,34 L22,34 L22,27 C22,26.5266131 21.6710663,26.1300527 21.2292908,26.0264107 L21.1166211,26.0067277 L21,26 Z"/>
  </g>
</svg>
