<svg xmlns="http://www.w3.org/2000/svg" width="40" height="40" viewBox="0 0 40 40">
  <g fill="none" fill-rule="evenodd">
    <rect width="40" height="40"/>
    <path fill="#121317" d="M20,2 L36,10.4700236 L36,12.0581531 C36,22.4932746 30.3751128,32.1149816 21.2803358,37.3032919 L20.8768512,37.5293001 L20.0045327,38 L19.5294118,37.7484822 C10.1053785,32.7596206 4.16890187,23.088213 4.00354665,12.5119639 L4,12.0581531 L4,10.4700236 L20,2 Z M20,4.24951917 L6,11.6601281 L6.00371081,12.5062361 C6.15940973,21.9040191 11.2049742,30.5321411 19.2944424,35.3368249 L19.6819486,35.5627172 L20,35.7401407 L20.3132908,35.5654431 C28.5059411,30.8811426 33.6724619,22.3245208 33.9849706,12.9595193 L33.9961757,12.512968 L34,12.0581531 L34,11.6611207 L20,4.24951917 Z M26.7071068,15.326616 C27.0675907,15.6844255 27.0953203,16.2474482 26.7902954,16.6368289 L26.7071068,16.7303373 L18.7071068,24.6709845 C18.3466228,25.028794 17.7793918,25.0563178 17.3871006,24.7535559 L17.2928932,24.6709845 L13.2928932,20.7006609 C12.9023689,20.313034 12.9023689,19.6845665 13.2928932,19.2969396 C13.6533772,18.9391301 14.2206082,18.9116063 14.6128994,19.2143681 L14.7071068,19.2969396 L18,22.5646219 L25.2928932,15.326616 C25.6834175,14.938989 26.3165825,14.938989 26.7071068,15.326616 Z"/>
  </g>
</svg>
