<svg xmlns="http://www.w3.org/2000/svg" width="40" height="40" viewBox="0 0 40 40">
  <g fill="none" fill-rule="evenodd">
    <rect width="40" height="40"/>
    <path fill="#121317" d="M30,0 C35.5228475,0 40,4.4771525 40,10 C40,13.3958262 38.3073519,16.3963132 35.7197303,18.2037864 L35.5044352,18.3500491 C35.7861247,18.7744827 35.9614876,19.2753058 35.9943659,19.8146198 L36,20 L36,27 C36,28.3058822 35.1656226,29.4168852 34.0009007,29.8289758 L34,32 C34,33.0543618 33.1841222,33.9181651 32.1492623,33.9945143 L32,34 L29,34 C27.9456382,34 27.0818349,33.1841222 27.0054857,32.1492623 L27,32 L27,30 L11,30 L11,32 C11,33.0543618 10.1841222,33.9181651 9.14926234,33.9945143 L9,34 L6,34 C4.9456382,34 4.08183488,33.1841222 4.00548574,32.1492623 L4,32 L4.00008893,29.8293257 C2.89311204,29.438105 2.08431098,28.4156297 2.00619832,27.1944123 L2,27 L2,20 C2,18.5681463 3.00311757,17.3705832 4.34493237,17.0717312 L7.5527864,10.6583592 C8.03106974,9.70179255 8.97937732,9.07682556 10.0366421,9.00660995 L10.236068,9 L20.0494456,8.99929175 L20.0479086,9.01488435 C20.5427303,3.95442929 24.8095619,0 30,0 Z M9,30 L6,30 L6,32 L9,32 L9,30 Z M32,30 L29,30 L29,32 L32,32 L32,30 Z M25.9441114,19.1432892 L25.6373153,19.0006997 L5,19 C4.48716416,19 4.06449284,19.3860402 4.00672773,19.8833789 L4,20 L4,27 C4,27.5128358 4.38604019,27.9355072 4.88337887,27.9932723 L5,28 L33,28 C33.5128358,28 33.9355072,27.6139598 33.9932723,27.1166211 L34,27 L34,20 C34,19.7228955 33.8872898,19.4721158 33.7052127,19.2910041 L33.7382234,19.277862 C32.5833809,19.7436126 31.3216317,20 30,20 C28.556126,20 27.1837243,19.6939909 25.9441114,19.1432892 L25.9441114,19.1432892 Z M11,21 C11.6424073,21 12.1071307,21.5923403 11.9796308,22.2018783 L11.9486833,22.3162278 L10.9486833,25.3162278 C10.8249433,25.6874479 10.4978769,25.9488234 10.1160442,25.9932782 L10,26 L7,26 C6.48716416,26 6.06449284,25.6139598 6.00672773,25.1166211 L6,25 L6,22 C6,21.4871642 6.38604019,21.0644928 6.88337887,21.0067277 L7,21 L11,21 Z M31.0007666,21 C31.5530514,21 32.0007666,21.4477153 32.0007666,22 L32.0007666,25 C32.0007666,25.5522847 31.5530514,26 31.0007666,26 L28.0007666,26 C27.5703362,26 27.1881974,25.7245699 27.0520833,25.3162278 L26.0520833,22.3162278 C25.8362396,21.6686967 26.3182089,21 27.0007666,21 L31.0007666,21 Z M23,22 C23.5522847,22 24,22.4477153 24,23 L24,24 C24,24.5522847 23.5522847,25 23,25 L15,25 C14.4477153,25 14,24.5522847 14,24 L14,23 C14,22.4477153 14.4477153,22 15,22 L23,22 Z M9.612,23 L8,23 L8,24 L9.279,24 L9.612,23 Z M30.0007666,23 L28.3887666,23 L28.7217666,24 L30.0007666,24 L30.0007666,23 Z M30,2 C25.581722,2 22,5.581722 22,10 C22,14.418278 25.581722,18 30,18 C34.418278,18 38,14.418278 38,10 C38,5.581722 34.418278,2 30,2 Z M20.0819985,11.2865908 L20.0493853,11.0001009 L10.236068,11 C9.8993817,11 9.58838151,11.1690883 9.40445755,11.4446023 L9.34164079,11.5527864 L6.617,17 L22.8582753,16.9997022 L22.8375134,16.9784591 C21.3636394,15.4659634 20.3647971,13.4883366 20.0819985,11.2865908 L20.0819985,11.2865908 Z M33.7071068,7.29289322 C34.0675907,7.65337718 34.0953203,8.22060824 33.7902954,8.61289944 L33.7071068,8.70710678 L29.7071068,12.7071068 C29.3466228,13.0675907 28.7793918,13.0953203 28.3871006,12.7902954 L28.2928932,12.7071068 L26.2928932,10.7071068 C25.9023689,10.3165825 25.9023689,9.68341751 26.2928932,9.29289322 C26.6533772,8.93240926 27.2206082,8.90467972 27.6128994,9.20970461 L27.7071068,9.29289322 L29,10.585 L32.2928932,7.29289322 C32.6834175,6.90236893 33.3165825,6.90236893 33.7071068,7.29289322 Z"/>
  </g>
</svg>
